<?xml version="1.0" encoding="UTF-8" standalone="no"?>
<!-- Created with Inkscape (http://www.inkscape.org/) -->

<svg
   width="117.88681mm"
   height="45.820393mm"
   viewBox="0 0 117.88681 45.820393"
   version="1.1"
   id="svg8"
   inkscape:version="1.1 (c68e22c387, 2021-05-23)"
   sodipodi:docname="logo-neon-illuminated-white-vec.svg"
   xmlns:inkscape="http://www.inkscape.org/namespaces/inkscape"
   xmlns:sodipodi="http://sodipodi.sourceforge.net/DTD/sodipodi-0.dtd"
   xmlns="http://www.w3.org/2000/svg"
   xmlns:svg="http://www.w3.org/2000/svg"
   xmlns:rdf="http://www.w3.org/1999/02/22-rdf-syntax-ns#"
   xmlns:cc="http://creativecommons.org/ns#"
   xmlns:dc="http://purl.org/dc/elements/1.1/">
  <defs
     id="defs2">
    <clipPath
       id="clipPath3757"
       clipPathUnits="userSpaceOnUse">
      <path
         inkscape:connector-curvature="0"
         id="path3755"
         d="M 0,500 H 500 V 0 H 0 Z" />
    </clipPath>
    <clipPath
       id="clipPath3765"
       clipPathUnits="userSpaceOnUse">
      <path
         inkscape:connector-curvature="0"
         id="path3763"
         d="M 82.8265,314.979 H 417.186 V 185.001 H 82.8265 Z" />
    </clipPath>
    <clipPath
       id="clipPath8201"
       clipPathUnits="userSpaceOnUse">
      <path
         inkscape:connector-curvature="0"
         id="path8199"
         d="M 0,500 H 500 V 0 H 0 Z" />
    </clipPath>
    <clipPath
       id="clipPath8209"
       clipPathUnits="userSpaceOnUse">
      <path
         inkscape:connector-curvature="0"
         id="path8207"
         d="M 82.8265,314.979 H 417.186 V 185.001 H 82.8265 Z" />
    </clipPath>
    <clipPath
       id="clipPath12673"
       clipPathUnits="userSpaceOnUse">
      <path
         inkscape:connector-curvature="0"
         id="path12671"
         d="M 0,500 H 500 V 0 H 0 Z" />
    </clipPath>
    <clipPath
       id="clipPath12681"
       clipPathUnits="userSpaceOnUse">
      <path
         inkscape:connector-curvature="0"
         id="path12679"
         d="M 82.8265,314.979 H 417.186 V 185.001 H 82.8265 Z" />
    </clipPath>
    <clipPath
       id="clipPath17393"
       clipPathUnits="userSpaceOnUse">
      <path
         inkscape:connector-curvature="0"
         id="path17391"
         d="M 0,500 H 500 V 0 H 0 Z" />
    </clipPath>
    <clipPath
       id="clipPath17401"
       clipPathUnits="userSpaceOnUse">
      <path
         inkscape:connector-curvature="0"
         id="path17399"
         d="M 82.8265,314.979 H 417.186 V 185.001 H 82.8265 Z" />
    </clipPath>
    <clipPath
       clipPathUnits="userSpaceOnUse"
       id="clipPath62">
      <rect
         style="stroke-width:0.122684"
         y="223.30795"
         x="-275.75461"
         height="78.517853"
         width="78.517853"
         id="rect64" />
    </clipPath>
    <clipPath
       clipPathUnits="userSpaceOnUse"
       id="clipPath83">
      <rect
         id="rect85"
         width="119.44048"
         height="119.44048"
         x="-481.54169"
         y="176.04762"
         style="fill:none;stroke-width:0.234855" />
    </clipPath>
    <clipPath
       clipPathUnits="userSpaceOnUse"
       id="clipPath89">
      <path
         style="fill:none;stroke:#000000;stroke-width:0.264583px;stroke-linecap:butt;stroke-linejoin:miter;stroke-opacity:1"
         d="m -481.08514,260.11681 v -37.41774 h 29.80055 v 26.86059 l 1.70786,1.10631 -0.3189,0.69688 -0.2008,0.69691 0.0354,0.81501 0.189,0.68508 0.40158,0.55514 0.42524,0.4961 v 5.57253 z"
         id="path91"
         inkscape:connector-curvature="0" />
    </clipPath>
  </defs>
  <sodipodi:namedview
     id="base"
     pagecolor="#ffffff"
     bordercolor="#666666"
     borderopacity="1.0"
     inkscape:pageopacity="0.0"
     inkscape:pageshadow="2"
     inkscape:zoom="0.98994949"
     inkscape:cx="223.74879"
     inkscape:cy="154.04826"
     inkscape:document-units="mm"
     inkscape:current-layer="layer1"
     showgrid="false"
     inkscape:window-width="2400"
     inkscape:window-height="1284"
     inkscape:window-x="-9"
     inkscape:window-y="-9"
     inkscape:window-maximized="1"
     fit-margin-top="0"
     fit-margin-left="0"
     fit-margin-right="0"
     fit-margin-bottom="0"
     inkscape:pagecheckerboard="0" />
  <metadata
     id="metadata5">
    <rdf:RDF>
      <cc:Work
         rdf:about="">
        <dc:format>image/svg+xml</dc:format>
        <dc:type
           rdf:resource="http://purl.org/dc/dcmitype/StillImage" />
      </cc:Work>
    </rdf:RDF>
  </metadata>
  <g
     inkscape:label="Layer 1"
     inkscape:groupmode="layer"
     id="layer1"
     transform="translate(-52.759374,-116.9353)">
    <path
       style="fill:#ffffff;stroke-width:0.0846667"
       d="m 56.050324,162.71217 c -0.26185,-0.11256 -0.52376,-0.43364 -0.73149,-0.8967 -0.22557,-0.50282 -0.31955,-1.79394 -0.16474,-2.26304 0.20265,-0.61402 0.2751,-0.64023 2.77294,-1.00297 1.24958,-0.18147 2.3272,-0.33024 2.39473,-0.33061 0.21085,-0.001 -0.008,-0.12867 -0.71544,-0.4167 -3.5897,-1.46177 -6.00935,-4.60107 -6.69775,-8.68978 -0.1991,-1.18257 -0.19891,-3.51816 4.3e-4,-4.69485 0.1872,-1.1053 0.39695,-1.94902 0.71563,-2.87866 2.31174,-6.74392 8.42627,-11.99396 14.99869,-12.87817 1.07562,-0.1447 3.05779,-0.1018 4.10634,0.0889 4.12542,0.75021 7.27971,3.52332 8.6011,7.56171 0.95993,2.93374 0.74367,6.83524 -0.56055,10.11274 -1.60756,4.03978 -4.36678,7.37476 -7.99822,9.66717 -0.30438,0.19214 -0.4816,0.34776 -0.39653,0.34821 0.25005,10e-4 11.27203,-1.59577 11.45103,-1.65926 0.26614,-0.0944 0.61925,-0.46503 0.71044,-0.74573 0.0467,-0.14367 0.33358,-2.64246 0.63758,-5.55288 0.30399,-2.91041 0.57231,-5.42501 0.59626,-5.588 0.0428,-0.29102 0.035,-0.3 -0.43289,-0.50124 -1.06477,-0.45794 -1.87974,-1.58154 -2.07128,-2.85567 -0.0789,-0.5251 -0.0513,-0.96793 0.20868,-3.34433 0.16482,-1.5065 0.37737,-3.48204 0.47233,-4.39009 0.095,-0.90805 0.22769,-1.90636 0.29493,-2.21846 0.34098,-1.58259 1.29922,-2.50705 2.68444,-2.58979 0.59412,-0.0355 0.6995,-0.016 1.21287,0.22423 1.11147,0.52011 2.04333,1.75459 2.41852,3.20391 0.29948,1.15687 0.29303,2.05153 -0.0368,5.10391 -0.16345,1.51257 -0.28744,2.75988 -0.27552,2.77179 0.0119,0.0119 2.79264,-0.37791 6.1794,-0.8663 3.38676,-0.48837 6.173546,-0.88795 6.192866,-0.88795 0.0193,0 0.1675,-0.11624 0.32929,-0.25829 0.22199,-0.1949 0.31671,-0.3663 0.38601,-0.6985 0.0728,-0.34909 0.67418,-5.84021 0.88734,-8.10255 0.13917,-1.47712 0.83221,-2.7194 1.76304,-3.16027 0.41094,-0.19464 1.1538,-0.31472 1.56212,-0.25252 1.3519,0.20595 2.6557,1.63658 3.13468,3.43961 0.37369,1.40673 0.35296,1.71646 -0.88796,13.26271 -0.61289,5.70269 -1.09891,10.38396 -1.08004,10.40282 0.0323,0.0323 3.78311,-0.48157 4.93247,-0.67574 0.63062,-0.10655 0.97866,-0.38343 1.10887,-0.88219 0.0478,-0.18302 0.51303,-4.37134 1.03391,-9.3074 l 0.94704,-8.97465 -0.77251,-2.58235 c -0.91262,-3.05069 -0.97852,-3.34145 -0.91401,-4.03235 0.0616,-0.65994 0.2109,-1.0213 0.59959,-1.45153 0.97536,-1.0796 2.62821,-0.87284 3.88643,0.48618 1.20308,1.29948 1.66527,3.31515 1.34009,5.84435 -0.0569,0.44238 -0.10554,0.95673 -0.10814,1.143 -0.004,0.25362 2.52763,8.98583 3.29653,11.37258 l 0.0633,0.19657 0.23525,-0.18505 c 0.27811,-0.21876 -0.0926,0.55139 5.1736,-10.7491 2.31112,-4.95935 4.26409,-9.1313 4.33994,-9.271 0.57859,-1.06572 1.19029,-1.69203 2.05816,-2.10732 0.48987,-0.23441 0.63406,-0.26335 1.31233,-0.26335 0.65068,0 0.83316,0.0334 1.24906,0.22825 0.99751,0.46747 1.85476,1.54341 2.31409,2.90442 0.45504,1.3483 0.44834,1.45851 -0.81304,13.35992 -0.6159,5.81125 -1.10564,10.57872 -1.0883,10.59438 0.0173,0.0156 1.04118,-0.1182 2.27519,-0.29744 1.23402,-0.17925 2.25409,-0.32711 2.26681,-0.32855 0.0127,-0.001 -0.13583,-0.20267 -0.33012,-0.44715 -0.71567,-0.90051 -1.01064,-2.07289 -0.84144,-3.34433 0.048,-0.36089 0.26004,-2.29447 0.47114,-4.29683 0.21109,-2.00237 0.42559,-3.85022 0.47668,-4.10633 0.2936,-1.47213 1.53779,-2.98776 2.9311,-3.57057 0.26747,-0.11188 0.4446,-0.23873 0.44476,-0.31851 0,-0.10589 0.29298,-2.89996 0.63677,-6.07688 0.0733,-0.67768 0.27386,-1.35965 0.55471,-1.88657 0.27899,-0.52345 0.90566,-1.30797 1.30679,-1.63596 0.42406,-0.34675 1.32332,-0.8019 1.8618,-0.94235 0.82554,-0.21531 18.37898,-2.69923 18.62993,-2.63624 0.56358,0.14144 1.05547,1.18205 1.0546,2.23102 -8.5e-4,0.7355 -0.11154,1.11966 -0.40116,1.38922 -0.22562,0.20999 -0.53145,0.25989 -9.20803,1.50266 -6.33922,0.90797 -9.06008,1.3292 -9.26554,1.43445 -0.51878,0.26573 -0.57847,0.49611 -0.88357,3.41012 -0.15286,1.46003 -0.27011,2.66584 -0.26055,2.67958 0.01,0.0137 2.67949,-0.36005 5.93319,-0.83063 7.14649,-1.03358 7.04858,-1.02248 8.13344,-0.92243 2.08494,0.19229 3.73974,1.13273 4.34698,2.47043 0.23066,0.50812 0.22774,1.54196 -0.006,2.0387 -0.38761,0.82462 -1.27445,1.43163 -2.47481,1.69391 -1.03746,0.22669 -16.07326,2.34287 -16.63855,2.34175 -0.90857,-0.002 -1.87037,-0.4116 -2.50885,-1.06902 -0.16762,-0.17259 -0.32369,-0.29487 -0.34683,-0.27173 -0.0542,0.0542 -0.88157,7.88474 -0.84024,7.95225 0.0171,0.028 3.41379,-0.44504 7.54812,-1.05117 6.80911,-0.99827 7.63257,-1.10269 8.74463,-1.10895 1.48618,-0.008 2.241,0.14386 3.24677,0.65477 0.78179,0.39714 1.53472,1.08196 1.83605,1.66997 0.23012,0.44905 0.32153,1.43147 0.17462,1.87661 -0.28548,0.86502 -1.02364,1.53496 -2.03882,1.8504 -0.31572,0.0981 -4.16586,0.69199 -9.05934,1.39742 -4.68065,0.67474 -8.87223,1.283 -9.31461,1.3517 -1.44947,0.22508 -7.99067,1.15579 -8.43852,1.20067 -0.58651,0.0588 -1.48043,-0.1061 -1.99846,-0.36861 -1.17836,-0.59712 -2.00902,-1.95118 -2.00902,-3.27493 0,-0.22808 0.51435,-5.2621 1.143,-11.18674 0.62865,-5.92464 1.143,-10.93068 1.143,-11.12454 0,-0.19386 -0.0286,-0.35132 -0.0635,-0.34992 -0.0349,0.001 -1.8131,3.76378 -3.9515,8.36083 -5.45279,11.72218 -5.17985,11.17547 -5.96803,11.95417 -2.3106,2.28283 -5.7037,1.79505 -6.75603,-0.97122 -0.0531,-0.1397 -0.23908,-0.7493 -0.41319,-1.35467 -0.31652,-1.1005 -0.45842,-1.4322 -0.45842,-1.07163 0,0.10445 -0.21037,2.17562 -0.4675,4.60262 -0.52082,4.91596 -0.55737,5.09415 -1.26248,6.1548 -0.6168,0.9278 -1.64072,1.6996 -2.654,2.00051 -0.64344,0.19108 -6.13973,0.97137 -6.84224,0.97137 -0.65987,0 -1.51445,-0.22239 -1.93759,-0.50424 -1.30222,-0.86738 -1.87538,-2.29142 -1.65429,-4.11009 0.23031,-1.89449 1.24379,-11.60197 1.21484,-11.63616 -0.0172,-0.0203 -0.17335,0.10117 -0.34712,0.26986 -0.43417,0.42146 -1.23139,0.88547 -1.83995,1.07092 -0.2794,0.0851 -3.5179,0.58548 -7.196656,1.11186 -3.67877,0.52637 -6.72298,0.98684 -6.76492,1.02326 -0.0419,0.0364 -0.37228,2.85954 -0.73411,6.27361 -0.58151,5.48696 -0.68288,6.27385 -0.87341,6.78007 -0.5196,1.38043 -1.64658,2.5194 -2.99038,3.02217 -0.47583,0.17804 -11.57667,1.8558 -12.75184,1.9273 -1.31638,0.0801 -2.9882,-0.33168 -3.94114,-0.9707 -0.2979,-0.19975 -0.5496,-0.36319 -0.55935,-0.36319 -0.01,0 -0.0611,0.14468 -0.11405,0.32153 -0.23776,0.79355 -0.98301,1.51542 -1.93988,1.87901 -0.2768,0.10518 -2.0606,0.40257 -4.82407,0.80425 -2.41167,0.35056 -4.49915,0.65492 -4.63885,0.67635 -0.1397,0.0214 -0.3302,0.006 -0.42334,-0.0338 z m 4.36034,-1.03171 c 2.02565,-0.28729 3.69768,-0.53494 3.71563,-0.55033 0.0179,-0.0154 -0.0235,-0.1149 -0.0921,-0.22113 -0.23201,-0.35927 -0.40621,-1.02505 -0.40621,-1.55247 v -0.52482 l -0.40217,-0.17007 c -0.22119,-0.0935 -0.48526,-0.19521 -0.58682,-0.22594 -0.17257,-0.0522 -6.4379,0.81437 -6.74792,0.93333 -0.46119,0.17698 -0.4857,1.55051 -0.0432,2.42179 0.18931,0.37275 0.38112,0.502 0.66813,0.45019 0.11642,-0.021 1.86902,-0.27326 3.89467,-0.56055 z m 5.09249,-0.78953 c 1.09713,-0.33297 1.84833,-1.07984 1.97788,-1.96647 0.059,-0.40364 -0.0807,-0.66455 -0.22462,-0.4195 -0.67466,1.14892 -2.1641,1.59555 -2.92959,0.87848 -0.10459,-0.098 -0.21015,-0.15815 -0.23459,-0.13371 -0.0653,0.0653 0.12868,0.91743 0.27593,1.21213 0.28968,0.57974 0.44503,0.63848 1.13499,0.42907 z m 6.56653,-1.17647 c -0.34482,-0.52626 -0.52073,-1.92538 -0.31132,-2.47617 0.10945,-0.28787 0.0787,-0.3161 -0.35381,-0.32511 l -0.35199,-0.007 -0.0946,0.46673 c -0.1603,0.79067 -0.6823,1.42113 -1.43815,1.73694 -0.16709,0.0698 -0.3038,0.14234 -0.3038,0.16118 0,0.0532 1.27916,0.4663 1.69886,0.54862 0.20651,0.0405 0.57988,0.0778 0.82971,0.0829 l 0.45424,0.009 -0.12912,-0.19706 z m 6.29031,-0.61686 c 2.81728,-0.40317 5.13006,-0.73878 5.13951,-0.74579 0.009,-0.007 -0.0858,-0.22073 -0.21167,-0.47494 -0.20948,-0.42308 -0.22884,-0.54636 -0.22884,-1.45735 0,-0.54734 -0.0203,-0.9952 -0.0452,-0.99524 -0.36146,-8.5e-4 -10.54253,1.54196 -10.62425,1.60978 -0.2056,0.17063 -0.3076,0.90108 -0.20491,1.46738 0.15138,0.83483 0.45854,1.32409 0.83331,1.32731 0.12085,10e-4 2.52477,-0.32799 5.34205,-0.73115 z m 7.10543,-1.26585 c 1.17272,-0.55313 2.22007,-1.86963 2.48241,-3.12036 0.0858,-0.40895 0.0798,-0.48426 -0.0499,-0.62752 -0.33601,-0.37128 -1.78196,-0.58193 -2.45101,-0.35708 -0.21616,0.0726 -0.31265,0.18671 -0.47471,0.56116 -0.21143,0.48852 -0.51858,0.78572 -1.03505,1.00152 -0.33288,0.13908 -0.49721,0.51316 -0.49721,1.13183 0,0.47272 0.28625,1.3491 0.5232,1.60182 0.16743,0.17857 0.24652,0.20182 0.53513,0.15729 0.18627,-0.0287 0.62146,-0.18564 0.9671,-0.34866 z m -18.67471,-2.05351 c 0.066,-0.4125 0.60998,-1.25701 1.03697,-1.60974 0.36537,-0.30183 1.2435,-0.75286 2.02331,-1.03922 1.07326,-0.39412 3.04051,-1.91563 4.24712,-3.28479 5.05569,-5.7368 5.21664,-13.40528 0.34268,-16.32768 -1.57748,-0.94585 -3.89627,-1.26855 -5.9868,-0.83316 -1.23148,0.25647 -1.85032,0.46348 -2.96333,0.99125 -3.05572,1.44898 -5.78448,4.14377 -7.36294,7.27129 -0.46067,0.91277 -0.91936,2.18613 -1.1742,3.25967 -0.19827,0.8352 -0.22133,1.10174 -0.22348,2.58233 -0.002,1.4666 0.0195,1.73138 0.19356,2.37067 0.37752,1.38651 0.95051,2.44229 1.82734,3.36703 0.94071,0.99211 2.31833,1.79726 3.0762,1.79791 1.30681,0.001 3.55598,0.77404 4.43209,1.52311 0.38355,0.32793 0.46984,0.31678 0.53148,-0.0687 z m 41.287276,-1.14762 c 0,-0.0174 -0.0849,-0.21739 -0.18856,-0.4445 -0.15646,-0.34263 -0.18889,-0.56529 -0.1905,-1.30792 -0.002,-0.83179 0.0142,-0.91936 0.22621,-1.23995 0.2158,-0.32628 0.22016,-0.35218 0.0805,-0.47861 -0.56889,-0.51484 -2.46965,-0.60893 -2.72339,-0.13481 -0.12026,0.2247 -0.1018,0.73521 0.0473,1.30755 0.27543,1.05742 0.98561,1.83797 1.9932,2.1907 0.34862,0.12204 0.7553,0.17995 0.7553,0.10754 z m 3.05756,-0.26275 c 1.13562,-0.16188 2.18248,-0.31486 2.32636,-0.33995 l 0.26158,-0.0456 -0.20477,-0.41376 c -0.28273,-0.57128 -0.41262,-1.46722 -0.2971,-2.04933 0.0497,-0.25043 0.0843,-0.46082 0.0769,-0.46752 -0.007,-0.007 -1.09016,0.14739 -2.40608,0.34244 -1.71429,0.25409 -2.431,0.39305 -2.5281,0.49015 -0.53553,0.53553 -0.082,2.77793 0.56187,2.77793 0.0795,0 1.07375,-0.13244 2.20938,-0.29432 z m 4.56244,-0.90715 c 0.3805,-0.18365 0.74694,-0.46383 1.18745,-0.90791 0.67906,-0.68457 0.98421,-1.20726 1.23823,-2.12091 l 0.14818,-0.53299 -0.22874,-0.19675 c -0.4372,-0.37607 -1.67678,-0.57014 -2.30087,-0.36023 -0.28414,0.0956 -0.37174,0.18599 -0.56085,0.57893 -0.25515,0.53011 -0.39858,0.67814 -0.92774,0.95745 -0.46821,0.24714 -0.58483,0.4704 -0.58642,1.12268 -0.002,0.66856 0.208,1.35947 0.50151,1.65297 0.2173,0.21731 0.26037,0.22819 0.60642,0.15316 0.20487,-0.0444 0.62014,-0.20031 0.92283,-0.3464 z m 22.606,-3.16223 c 0,-0.0251 -0.0748,-0.1923 -0.16619,-0.37146 -0.39264,-0.76963 -0.3905,-2.12157 0.004,-2.65781 0.0966,-0.13125 0.15397,-0.29513 0.12749,-0.36415 -0.1581,-0.41199 -1.87828,-0.69842 -2.53828,-0.42266 l -0.32711,0.13668 0.0403,0.69838 c 0.0819,1.41892 0.89995,2.49557 2.20646,2.90389 0.3819,0.11935 0.65312,0.15138 0.65312,0.0771 z m 4.52966,-0.51248 c 1.8161,-0.26219 3.30973,-0.48336 3.31918,-0.49149 0.009,-0.008 -0.0815,-0.21427 -0.2022,-0.45807 -0.15784,-0.31895 -0.2339,-0.63845 -0.27118,-1.13912 l -0.0518,-0.69585 -0.42113,-0.06 c -0.23162,-0.033 -0.56244,-0.12373 -0.73514,-0.20161 -0.30435,-0.13724 -0.39814,-0.12931 -3.05019,0.25778 -1.50491,0.21966 -2.78356,0.43828 -2.84143,0.48582 -0.34171,0.28072 -0.33285,1.47754 0.0166,2.24082 0.21187,0.46279 0.44289,0.63522 0.76598,0.57171 0.0931,-0.0183 1.65523,-0.2478 3.47133,-0.50999 z m 12.65767,-1.81653 c 4.58682,-0.65614 8.38833,-1.20861 8.44782,-1.2277 0.0793,-0.0255 0.0494,-0.15077 -0.11198,-0.46915 -0.12228,-0.2413 -0.24563,-0.66507 -0.27749,-0.95328 l -0.0573,-0.51885 -0.42333,-0.0635 c -0.51699,-0.0776 0.34112,-0.18658 -8.509,1.08116 -9.23581,1.32298 -8.46667,1.18515 -8.46667,1.51721 0,0.38688 0.23431,1.22129 0.43341,1.54345 0.12511,0.20243 0.23567,0.28053 0.399,0.28183 0.12426,0.001 3.97877,-0.53504 8.56559,-1.19118 z m 10.27741,-1.6083 c 1.04388,-0.39057 1.81617,-1.50598 1.61038,-2.32587 -0.0549,-0.21884 -0.0589,-0.21644 -0.21316,0.12808 -0.25365,0.56654 -0.48615,0.83618 -0.95079,1.10267 -0.6939,0.39798 -1.54996,0.33328 -2.12026,-0.16025 -0.14951,-0.12938 -0.15634,-0.12743 -0.10985,0.0314 0.0273,0.0931 0.0758,0.28363 0.1078,0.42333 0.0722,0.31496 0.26508,0.71212 0.4457,0.91779 0.16201,0.18449 0.51347,0.15102 1.23018,-0.11713 z m -77.278396,-7.78752 c 0.64073,-0.0942 1.18575,-0.20485 1.21115,-0.24598 0.0254,-0.0411 0.17333,-1.28539 0.32874,-2.76502 l 0.28257,-2.69024 -0.19709,-0.14867 c -0.4329,-0.32653 -2.08242,-0.56883 -2.23141,-0.32776 -0.0292,0.0472 -0.18183,1.31401 -0.33926,2.81516 -0.15743,1.50116 -0.30858,2.91035 -0.33589,3.13154 -0.0296,0.23987 -0.0162,0.40217 0.0333,0.40217 0.0456,0 0.60717,-0.077 1.2479,-0.1712 z m 61.243656,-2.75317 c 0,-0.0251 -0.0795,-0.20157 -0.1767,-0.39207 -0.10876,-0.2132 -0.19485,-0.58624 -0.22389,-0.97029 -0.0541,-0.71584 -0.021,-0.69851 -1.02527,-0.53554 -0.573,0.093 -0.94481,0.27934 -0.94481,0.47356 0,0.16183 0.63006,0.83435 0.99021,1.05694 0.45304,0.27999 1.38046,0.52682 1.38046,0.3674 z m 8.26281,-1.01351 c 4.04021,-0.58257 7.35896,-1.07234 7.37499,-1.08837 0.016,-0.016 -0.0661,-0.2347 -0.18251,-0.48595 -0.11641,-0.25124 -0.23626,-0.67425 -0.26634,-0.94003 l -0.0547,-0.48322 -0.37183,-0.0558 c -0.55398,-0.0831 -1.04973,-0.0217 -8.17071,1.01218 l -6.5494,0.95085 0.0209,0.53272 c 0.0289,0.73847 0.43478,1.61679 0.74707,1.61679 0.0587,0 3.41233,-0.47665 7.45254,-1.05921 z m 9.33322,-1.52449 c 0.86277,-0.39423 1.34305,-1.02267 1.43071,-1.8721 0.0558,-0.54095 -0.0534,-0.59115 -0.2612,-0.12007 -0.0812,0.18413 -0.33234,0.50079 -0.558,0.70368 -0.77507,0.69684 -1.7094,0.75806 -2.40856,0.15782 -0.15524,-0.13327 -0.15875,-0.12542 -0.10342,0.23076 0.0612,0.39419 0.2408,0.80314 0.46481,1.05861 0.18289,0.20857 0.77519,0.14309 1.43566,-0.1587 z m -77.192296,-2.50042 c -0.0935,-0.3696 -0.25212,-0.85325 -0.35257,-1.07477 l -0.18263,-0.40277 -0.1391,0.38083 c -0.1522,0.41669 -0.81573,1.13871 -1.26093,1.37206 -0.23706,0.12426 -0.27507,0.18874 -0.27449,0.46567 l 6.8e-4,0.32144 0.74015,0.0114 c 0.4991,0.008 0.87803,0.0639 1.16349,0.17249 l 0.42334,0.16111 0.026,-0.36771 c 0.0143,-0.20225 -0.0505,-0.67012 -0.14393,-1.03973 z"
       id="path61"
       inkscape:connector-curvature="0" />
  </g>
</svg>
